<svg xmlns="http://www.w3.org/2000/svg" width="1440" height="1440" viewBox="0 0 1080 1080"><path d="M320 72.7c-14.7 1-30 2.6-36.3 3.8-33.1 6.4-57.5 15.8-80.3 31-39.4 26.2-60.6 62.3-65.4 111.4-.6 6-1 46.2-1 97.5 0 94.2-.1 96.4-5.5 113.3-6.7 21.3-23.3 38.3-46.2 47.4-15.5 6.1-37.3 10.3-60.6 11.5l-12.7.7.2 35.6.3 35.6 14.5.7c35.5 1.6 64.3 10.4 82.3 25.3 12.8 10.6 20.3 24 25.4 45 1.4 6.2 1.7 18.5 2.3 105 .7 94.7.8 98.4 2.9 109.4 4.1 22.1 12.7 43.3 23.8 58.8 31.1 44 85.6 68.4 160.7 71.9l14.6.7v-71l-11.6-.7c-22.3-1.3-42.2-6-57.9-13.5-26.8-12.9-39.1-29.6-45.7-62.4-.6-3.3-1.3-40.7-1.8-101.2-.6-93.7-.7-96.2-2.8-105.7-5.8-25.7-14.4-42.1-30.1-57.8-10-10-17.5-15.3-30.9-21.9-12.6-6.3-18.9-8.5-35.2-12.5-13.3-3.3-13.5-3.4-13.5-6.1s.2-2.8 13-6C153.4 510.7 172 501 189 484c15.9-15.9 24.3-32.1 30.2-58.2 2.1-9 2.2-12.8 2.8-104.3.8-100.4.8-101.2 5.6-115.7 10.3-31.6 35.8-51.9 74.9-59.6 5.5-1.1 13.6-2.3 18-2.6 4.4-.4 10.4-.9 13.3-1.2l5.2-.5V72l-7.2.2c-4 .1-9.3.3-11.8.5m403 34v35l3.8.7c2 .3 5.7.6 8.2.6 12.7 0 35.6 5.1 49 10.7 27.2 11.5 42.8 29.5 50.7 58.3l2.6 9.5.7 94.5c.6 80.6.9 95.9 2.3 104 5.7 33.3 19.5 57 43.8 75 14.3 10.6 37.4 20.4 58.4 24.7l8.5 1.8v3.2c0 2.5-.4 3.3-1.8 3.3-3.3 0-28.7 6.9-36.4 9.9-17.3 6.7-30 14.5-41.3 25.3-13.2 12.5-21.7 26.7-27 45.3-5.8 20-5.8 20-6.5 124-.7 92.8-.7 96.3-2.8 104.7-6.5 26.8-20.1 43.8-44.3 55.2-15.3 7.3-35.3 11.9-57.1 13.2l-10.8.7V977h6.4c3.4 0 12.1-.5 19.2-1 57-4.6 100-21.1 129.8-50 22.1-21.4 34.4-43.8 41.3-75.3l2.6-12.2.8-98c.4-56.8 1.1-100.3 1.7-103.5 5.7-31.8 20.5-51.5 47.4-63.1 17.5-7.6 37.1-11.6 61.6-12.6l15.2-.6V489h-5.7c-18 0-45.7-4.4-61.8-9.9-36.6-12.4-54.4-36-57.5-76.3-.5-6.8-1-50.5-1-97.2 0-90.5-.2-94.4-5.1-114.1-4.3-16.9-13-35.4-23.2-49.5-10-13.6-28.8-30.4-45.4-40.3-28.8-17.4-66.5-27.3-111-29.3l-15.3-.7zm-225.2 374L390.2 769.5l32.6.3c17.9.1 32.7.1 32.8-.1.2-.2 48.5-129.5 107.3-287.3s107.3-287.7 107.6-288.7c.7-1.6-1.3-1.7-32.2-1.7h-32.8z"/></svg>